<svg xmlns="http://www.w3.org/2000/svg" width="24" height="24" fill="none" viewBox="0 0 24 24"><g clip-path="url(#clip0_42_103)"><mask id="mask0_42_103" style="mask-type:luminance" width="24" height="24" x="0" y="0" maskUnits="userSpaceOnUse"><path fill="#fff" d="M24 0H0V24H24V0Z"/></mask><g mask="url(#mask0_42_103)"><path stroke="#2C0958" stroke-linecap="round" stroke-linejoin="round" stroke-miterlimit="10" stroke-width="1.5" d="M18.5503 10.2831C18.5503 14.8495 14.8512 18.5486 10.2848 18.5486C5.71839 18.5486 2.01929 14.8495 2.01929 10.2831C2.01929 5.71677 5.71839 2.01765 10.2848 2.01765C14.8512 2.01765 18.5503 5.71677 18.5503 10.2831Z"/><path fill="url(#paint0_linear_42_103)" d="M24.0022 15.7344C24.0022 20.3008 20.303 23.9999 15.7367 23.9999C11.1703 23.9999 7.47119 20.3008 7.47119 15.7344C7.47119 11.168 11.1703 7.4689 15.7367 7.4689C20.303 7.48661 24.0022 11.1857 24.0022 15.7344Z"/></g></g><defs><linearGradient id="paint0_linear_42_103" x1="7.471" x2="20.482" y1="15.734" y2="10.478" gradientUnits="userSpaceOnUse"><stop stop-color="#FF62B7"/><stop offset="1" stop-color="#9F53FF"/></linearGradient><clipPath id="clip0_42_103"><rect width="24" height="24" fill="#fff"/></clipPath></defs></svg>